<svg xmlns="http://www.w3.org/2000/svg" viewBox="0 0 512 512">
  <defs>
    <style>
      .cls-1,
      .cls-2 {
        fill: #fff;
      }

      .cls-2 {
        fill-rule: evenodd;
      }

      .cls-3 {
        isolation: isolate;
      }
    </style>
  </defs>
  <g id="Capa_2" data-name="Capa 2">
    <g id="Capa_1-2" data-name="Capa 1">
      <g id="Capa_2-2" data-name="Capa 2">
        <g id="Layer_1" data-name="Layer 1">
          <g id="Grupo_4898" data-name="Grupo 4898">
            <g id="Grupo_3" data-name="Grupo 3">
              <path id="Trazado_258" data-name="Trazado 258" class="cls-1" d="M1.33,81.31v-28H7.26v28Z" />
              <path id="Trazado_259" data-name="Trazado 259" class="cls-1" d="M19.67,81.31H13.83v-28h16v4.86H19.67v7.22h9.5v4.84h-9.5Z" />
              <path id="Trazado_260" data-name="Trazado 260" class="cls-1" d="M48,81.31,46.88,78.4h-.16a8.47,8.47,0,0,1-3,2.58,9.62,9.62,0,0,1-4.07.71,6.53,6.53,0,0,1-4.85-1.76,6.72,6.72,0,0,1-1.77-5,5.62,5.62,0,0,1,2.38-5c1.59-1.08,4-1.67,7.19-1.79L46.33,68V67q0-3.26-3.33-3.25a15.24,15.24,0,0,0-6,1.55l-1.93-3.95a17.51,17.51,0,0,1,8.19-1.93c2.87,0,5.07.63,6.6,1.87a7,7,0,0,1,2.3,5.7V81.3ZM46.33,71.4l-2.26.07a7.33,7.33,0,0,0-3.78.92A2.92,2.92,0,0,0,39,75c0,1.64,1,2.47,2.83,2.47a4.48,4.48,0,0,0,3.25-1.17,4.11,4.11,0,0,0,1.21-3.1Z" />
              <path id="Trazado_261" data-name="Trazado 261" class="cls-1" d="M69.56,59.51a9.6,9.6,0,0,1,2,.18l-.43,5.47a6.81,6.81,0,0,0-1.8-.14A6.24,6.24,0,0,0,65,66.45a5.15,5.15,0,0,0-1.56,4V81.31h-5.8V59.91H62l.86,3.6h.29a8.13,8.13,0,0,1,2.69-2.9A6.67,6.67,0,0,1,69.56,59.51Z" />
              <path id="Trazado_262" data-name="Trazado 262" class="cls-1" d="M94.11,81.31H88.27V68.81a6.27,6.27,0,0,0-.78-3.47,2.73,2.73,0,0,0-2.44-1.16,3.53,3.53,0,0,0-3.25,1.65,10.74,10.74,0,0,0-1,5.41V81.31H75V59.91h4.46l.78,2.74h.33A5.85,5.85,0,0,1,83,60.34a8,8,0,0,1,3.73-.83c3.2,0,5.37,1,6.51,3.14h.51a5.89,5.89,0,0,1,2.57-2.32,8.5,8.5,0,0,1,3.78-.82,7.44,7.44,0,0,1,5.5,1.86q1.86,1.89,1.86,6v14h-5.85V68.81a6.3,6.3,0,0,0-.78-3.48,2.74,2.74,0,0,0-2.51-1.16,3.64,3.64,0,0,0-3.2,1.54,8.66,8.66,0,0,0-1.06,4.86Z" />
              <path id="Trazado_263" data-name="Trazado 263" class="cls-1" d="M112.72,54.38c0-1.9,1-2.85,3.17-2.85s3.17.95,3.18,2.85a2.78,2.78,0,0,1-.79,2.12,3.4,3.4,0,0,1-2.39.76Q112.73,57.26,112.72,54.38Zm6.08,26.93H113V59.91h5.83Z" />
              <path id="Trazado_264" data-name="Trazado 264" class="cls-1" d="M144.21,81.31h-5.88V68.81a6,6,0,0,0-.82-3.47,3,3,0,0,0-2.62-1.16,3.91,3.91,0,0,0-3.54,1.64c-.68,1.1-1,2.9-1,5.42V81.31H124.5V59.91H129l.78,2.74h.33a6.14,6.14,0,0,1,2.69-2.35,9.28,9.28,0,0,1,3.89-.79,7.52,7.52,0,0,1,5.67,2,8.16,8.16,0,0,1,1.93,5.83Z" />
              <path id="Trazado_265" data-name="Trazado 265" class="cls-1" d="M168.33,59.92v3l-3.35.86A5.91,5.91,0,0,1,165.9,67a6.5,6.5,0,0,1-2.4,5.37,10.46,10.46,0,0,1-6.67,1.92l-1-.06-.86-.1a1.94,1.94,0,0,0-.9,1.53c0,.84,1.07,1.27,3.21,1.27h3.64a8.33,8.33,0,0,1,5.41,1.47,5.44,5.44,0,0,1,1.84,4.44A6.6,6.6,0,0,1,165,88.66q-3.12,2.06-9,2.06-4.5,0-6.85-1.56a5,5,0,0,1-2.36-4.37A4.55,4.55,0,0,1,148,81.56a6.77,6.77,0,0,1,3.54-1.86A3.77,3.77,0,0,1,150,78.45a3.09,3.09,0,0,1,0-3.89,8.38,8.38,0,0,1,2-1.6,5.76,5.76,0,0,1-2.67-2.33,7.11,7.11,0,0,1-1-3.79,6.67,6.67,0,0,1,2.28-5.42,9.77,9.77,0,0,1,6.5-1.91,17.12,17.12,0,0,1,2.14.16c.82.11,1.35.19,1.58.24ZM151.85,84.34A2.12,2.12,0,0,0,153,86.23a6.39,6.39,0,0,0,3.24.69,11.38,11.38,0,0,0,4.92-.86A2.62,2.62,0,0,0,163,83.71a1.68,1.68,0,0,0-1-1.69,8.57,8.57,0,0,0-3.25-.46h-3a4.63,4.63,0,0,0-2.69.76,2.32,2.32,0,0,0-1.08,2ZM154,66.92a4.3,4.3,0,0,0,.79,2.76,2.9,2.9,0,0,0,2.42,1,2.81,2.81,0,0,0,2.41-1,4.54,4.54,0,0,0,.73-2.76q0-3.9-3.14-3.9T154,66.89Z" />
            </g>
            <path id="Trazado_266" data-name="Trazado 266" class="cls-2" d="M77.18,41.35A50,50,0,0,0,84.11,45h.11a30.86,30.86,0,0,0,16.32,1.4C99,46.26,97,46,97.16,45.81a10.8,10.8,0,0,0,1.57-.36,11.89,11.89,0,0,0,1.64.7h0l.49.12c.56-.12,1.12-.24,1.68-.38-2.78,0-5.09-1.56-7-4A1.51,1.51,0,0,1,95.42,40c2.7-2.58,5.33-4.4,9.27-3.47h.1a10.61,10.61,0,0,1,5,3l-.87.94,1.64.39A14.38,14.38,0,0,1,107,44.45c8.38-3.3,15.81-9.66,21.76-16.83l-6.94-2.16,4.06-3.78A46.05,46.05,0,0,0,105.13,7.1c-.6-.21-1.2-.41-1.8-.59a36.52,36.52,0,0,0-21.72,1,34.9,34.9,0,0,0-4.46,2c-.8.36-1.55.73-2.26,1.11h-6a3.72,3.72,0,0,0-7.06,1.64h0A3.72,3.72,0,0,0,65.55,16h0a3.73,3.73,0,0,0,3.33-2.08H90.15a3.73,3.73,0,1,1,0,3.32H63.25a3.73,3.73,0,1,0-1.69,5,3.79,3.79,0,0,0,1.69-1.69h18.9a3.73,3.73,0,1,1,0,3.32H70.5a3.73,3.73,0,0,0-3.34-2.07H65.8l-.24.11h-.07l-.21.13h-.06l-.07.05H65l-.06.05h0l-.13.11h0v.05h0l-.52.72h0a3.74,3.74,0,0,0,.5,5.27,2.32,2.32,0,0,0,.3.22h1.72a3.73,3.73,0,0,0,3.35-2.08H91.38a3.73,3.73,0,1,1,3.35,6.09h0a3.72,3.72,0,0,1-3.34-2.07H62.85a3.73,3.73,0,1,0-1.68,5,3.69,3.69,0,0,0,1.68-1.68H75.06a3.73,3.73,0,1,1,1.69,5,3.69,3.69,0,0,1-1.69-1.69H71.42a42.78,42.78,0,0,0,5.76,4.25Zm29.5-1.94a.63.63,0,0,1,.59-.68.64.64,0,0,1,.69.59h0a.65.65,0,0,1-.58.7h0a.65.65,0,0,1-.69-.59Zm-15.5,5.84a4,4,0,0,0-.56-7.85,5.57,5.57,0,0,1,.57,7.84h0ZM104.39,36a11,11,0,0,0-4.79-.62c-2.07.06-.84.69-.34,1.2A9,9,0,0,1,104.39,36ZM40,43c9-1.86,15.38-8.9,15.38-17S49,10.87,40,9C49.41,18.85,49.41,33.21,40,43ZM61.83,18.86a1.92,1.92,0,0,1-1.92,1.92h0A1.92,1.92,0,0,1,58,18.86h0a1.92,1.92,0,0,1,1.91-1.92h0a1.92,1.92,0,0,1,1.92,1.92Zm-.41,13.26a1.93,1.93,0,0,0-1.91-1.92h0a1.92,1.92,0,0,0-1.92,1.92h0A1.91,1.91,0,0,0,59.5,34h0a1.91,1.91,0,0,0,1.92-1.9h0Zm6-19.9a1.92,1.92,0,1,0-1.92,1.93,1.93,1.93,0,0,0,1.92-1.93v0ZM92.8,28.8a1.92,1.92,0,1,1,1.92,1.92h0a1.9,1.9,0,0,1-1.92-1.9h0ZM69.07,25.49a1.92,1.92,0,0,0-1.9-1.92h0a1.92,1.92,0,0,0-1.92,1.92h0a1.92,1.92,0,0,0,3.84,0Zm22.5-9.95a1.92,1.92,0,1,1,3.84,0h0a1.92,1.92,0,0,1-1.92,1.92h0A1.92,1.92,0,0,1,91.57,15.54Zm-8,6.63a1.93,1.93,0,0,1,1.92-1.92h0a1.92,1.92,0,0,1,1.92,1.92h0a1.92,1.92,0,0,1-1.92,1.92h0a1.91,1.91,0,0,1-1.92-1.91ZM76.49,35.44a1.91,1.91,0,0,1,1.9-1.92h0a1.92,1.92,0,0,1,1.93,1.89v0h0a1.9,1.9,0,0,1-1.89,1.91h0a1.89,1.89,0,0,1-1.91-1.89v0ZM103.65,4.21C97.55,1,90,.31,83.2,0c-9-.31-3.87,2.73-1.87,5.12a38.92,38.92,0,0,1,22.29-.93ZM76.33,43.54a44.7,44.7,0,0,1-6.89,1.09c-.84.87,12,3.35,18.31,3.78a34,34,0,0,1-4.33-1.25h-.18A51.61,51.61,0,0,1,76.33,43.54Zm36.14-23.76a2.76,2.76,0,1,1,5.52,0h0a2.77,2.77,0,0,1-2.76,2.76h0A2.77,2.77,0,0,1,112.47,19.78Z" />
            </g>
          </g>
      </g>
    </g>
  </g>
</svg>